<?xml version="1.0" encoding="utf-8"?>
<!-- Generator: Adobe Illustrator 27.8.1, SVG Export Plug-In . SVG Version: 6.00 Build 0)  -->
<svg version="1.1" id="OBJECTS" xmlns="http://www.w3.org/2000/svg" xmlns:xlink="http://www.w3.org/1999/xlink" x="0px" y="0px"
	 viewBox="0 0 485.5 186.9" style="enable-background:new 0 0 485.5 186.9;" xml:space="preserve">
<style type="text/css">
	.st0{fill:#D5E5FC;}
	.st1{opacity:0.2;}
	.st2{fill:#000072;}
	.st3{fill:#82A7F7;}
	.st4{fill:#4C60A5;}
	.st5{fill:#686868;}
	.st6{fill:#FFFFFF;}
	.st7{fill:#D3D4E2;}
	.st8{opacity:0.3;}
	.st9{fill:#6B184E;}
	.st10{fill:#E8E8E8;}
	.st11{opacity:0.5;}
	.st12{fill:#8E8FB3;}
	.st13{fill:#6C709E;}
	.st14{fill:#DDFFC9;}
	.st15{fill:#00B9D4;}
	.st16{opacity:0.7;}
	.st17{fill:#F27E80;}
	.st18{fill:#E59013;}
	.st19{fill:#BDFFAA;}
	.st20{fill:#FCA032;}
	.st21{opacity:0.4;}
	.st22{fill:#FF6A29;}
	.st23{fill:#FF6464;}
	.st24{fill:#FF8928;}
	.st25{opacity:0.35;}
</style>
<path class="st0" d="M242.6,146.4c-169.1,0-240.2,27.9-240.2,27.9S73.5,186,242.6,186s240.2-11.7,240.2-11.7
	S411.7,146.4,242.6,146.4z"/>
<g>
	<g class="st1">
		<path class="st2" d="M465.7,403.1"/>
	</g>
	<g>
		<g>
			<g>
				<path class="st2" d="M275.1,225.9"/>
			</g>
		</g>
	</g>
</g>
<g>
	<g class="st1">
		
			<ellipse transform="matrix(0.9992 -4.052320e-02 4.052320e-02 0.9992 -6.0643 10.1261)" class="st2" cx="246.8" cy="154.7" rx="101" ry="15.5"/>
	</g>
	<g>
		<g>
			<g>
				<path class="st3" d="M341.9,71.3c0,0.2,0,0.4-0.1,0.5c-0.1,0.5-0.2,1-0.3,1.4c-2.7,10.5-15.6,9.2-15.8-2.4
					c-0.2-8.2-4-10.8-7.5-10.3c-0.6,0.1-1.1,0.2-1.6,0.4c-1.2,0.5-2.3,1.3-3.1,2.3c-0.7,0.9-1.2,1.9-1.4,3c-0.4,2.1-0.2,4.3,0.3,6.5
					c1.2,4.5,4.3,9.1,7.6,13.6c0.9,1.3,1.9,2.6,2.9,3.9c1.1,1.5,1.9,2.9,2.6,4.4c1.1,2.6,1.6,5.2,1.6,7.7c0,2.2-0.4,4.4-1.1,6.4
					c-3.6,9.7-15.3,16.4-29.7,11.3l1.5-12.6c2.8,1.9,5.7,2.6,8.2,2.5c0.3,0,0.6,0,0.9-0.1h0c0.1,0,0.2,0,0.3,0
					c3.8-0.5,6.7-2.8,7.3-5.1c2-7.4-8.3-20-11.6-27.1c-6.1-13.2-1.1-25.6,9.8-29.9c1.5-0.6,3.1-1,4.7-1.3c0.9-0.1,1.8-0.2,2.8-0.3
					c0.7,0,1.4,0,2,0C336.8,46.9,343.1,61.8,341.9,71.3z"/>
			</g>
			<g>
				<path class="st4" d="M326,108.8c-3.6,9.7-15.3,16.4-29.7,11.3l1.5-12.6c2.8,1.9,5.7,2.6,8.2,2.5
					C309.6,115,320.7,117.3,326,108.8z"/>
			</g>
			<g>
				<path class="st4" d="M307.6,69.8c2.2,8.2,9.3,14.3,12.4,16.6c-3.3-4.5-6.4-9-7.6-13.6c-0.6-2.2-0.8-4.3-0.3-6.4
					c0.2-1.1,0.7-2.2,1.4-3c1.2-1.5,2.9-2.5,4.7-2.8c3.6-0.5,7.4,2.1,7.5,10.3c0.2,11.6,13.1,12.8,15.8,2.4c0.1-0.5,0.2-0.9,0.3-1.4
					c-1.9,2.1-7,6.1-10.8,3.2c-5.3-4.1-0.8-13.3-7.7-18.3C318.1,52.9,304.7,59.1,307.6,69.8z"/>
			</g>
			<g>
				<path class="st5" d="M314.4,57.1c0.1,0.1,1.5-0.5,1.5-0.4c0,0.7-0.1,2.1,0.7,4.2c0,0,0,0,0,0c0.1,0,0.2-0.1,0.3-0.1
					c0.1,0,0.2-0.1,0.3-0.1c0.1,0,0.1,0,0.2-0.1c0.1,0,0.1,0,0.2-0.1c0.2,0,0.4-0.1,0.6-0.1c3.6-0.5,7.4,2.1,7.5,10.3
					c0.2,11.6,13.1,12.8,15.8,2.4c0.1-0.5,0.2-0.9,0.3-1.4c-1.9,2.1-7.1,6.1-10.8,3.2c-5.3-4.1-0.8-13.3-7.7-18.3
					c-2.2-1.6-5.8-1.4-9,0.1C314.3,56.9,314.3,57.1,314.4,57.1z"/>
			</g>
			<g>
				<path class="st6" d="M316.6,61c0.5-0.2,1.1-0.4,1.6-0.4c3.6-0.5,7.4,2.1,7.5,10.3c0.2,11.6,13.1,12.8,15.8,2.4
					c0.1-0.5,0.2-0.9,0.3-1.4c0-0.2,0-0.4,0.1-0.5c1.2-9.5-5.1-24.4-19.5-25.1c-0.7,0-1.3,0-2,0c-1,0-1.9,0.1-2.8,0.3
					c-0.8,0.7-2.7,3.4-2.9,5.8c0,0.3,1.3-0.5,1.3-0.2c-0.2,1.1-2.1,4.6-1.5,5c0.1,0.1,1.5-0.5,1.5-0.4
					C315.8,57.5,315.8,58.9,316.6,61z"/>
			</g>
			<g>
				<path class="st7" d="M314.4,57.1c0.1,0.1,1.5-0.5,1.5-0.4c0,0.7-0.1,2.1,0.7,4.2c0,0,0,0,0,0c0.1,0,0.2-0.1,0.3-0.1
					c0.1,0,0.2-0.1,0.3-0.1c0.1,0,0.1,0,0.2-0.1c0.1,0,0.1,0,0.2-0.1c0.2,0,0.4-0.1,0.6-0.1c3.6-0.5,7.4,2.1,7.5,10.3
					c0.2,11.6,13.1,12.8,15.8,2.4c0.1-0.5,0.2-0.9,0.3-1.4c-1.9,2.1-7.1,6.1-10.8,3.2c-5.3-4.1-0.8-13.3-7.7-18.3
					c-2.2-1.6-5.8-1.4-9,0.1C314.3,56.9,314.3,57.1,314.4,57.1z"/>
			</g>
			<g>
				<path class="st2" d="M306,122.9c-3.3,0-6.7-0.6-10.1-1.8c-0.6-0.2-0.9-0.8-0.7-1.4c0.2-0.6,0.8-0.9,1.4-0.7
					c10.3,3.6,20.4,1.2,25.9-6.2c4.8-6.6,4.6-15-0.6-21.9c-0.4-0.5-0.7-1-1.1-1.4c-5.6-7.5-11.5-15.3-9.9-23.3
					c0.8-4,4.7-7.1,8.6-6.7c1.6,0.1,7,1.4,7.2,11.4c0.1,5.7,3.4,8.1,6.1,8.4c2.9,0.3,6.3-1.5,7.6-6.3c1.3-4.9,0-12.9-4.8-18.8
					c-2.7-3.3-7.5-7.2-15.3-6.9c-7,0.3-12.9,3.5-16.2,8.9c-3.6,5.9-3.7,13.5-0.2,21c0.9,2,2.4,4.5,4,7.1c4.3,7.1,9.2,15.1,7.6,20.8
					c-0.6,2.2-2.7,4.2-5.5,5.2c-4.1,1.5-8.8,0.8-12.9-1.9c-0.5-0.3-0.6-1-0.3-1.5c0.3-0.5,1-0.6,1.5-0.3c3.5,2.3,7.5,3,10.9,1.7
					c2.1-0.8,3.8-2.3,4.2-3.8c1.3-4.8-3.5-12.7-7.4-19.1c-1.6-2.7-3.2-5.2-4.1-7.3c-3.7-8.1-3.6-16.5,0.3-23c3.7-6,10.2-9.6,17.9-10
					c8.7-0.4,14.1,4,17.1,7.7c4.7,5.8,6.8,14.4,5.2,20.7c-1.6,6.1-6.1,8.3-9.9,7.9c-3.9-0.5-7.9-3.9-8-10.5c-0.1-5.7-2-9.1-5.2-9.3
					c-2.8-0.2-5.7,2.1-6.3,5c-1.4,7,4.2,14.4,9.5,21.6c0.4,0.5,0.7,1,1.1,1.5c5.7,7.7,5.9,17.3,0.6,24.5c-2.8,3.8-6.8,6.6-11.6,7.9
					C310.6,122.6,308.3,122.9,306,122.9z"/>
			</g>
		</g>
		<g>
			<path class="st6" d="M193.8,148.6c-8.7,1.2-16.4,6-28.9,5.3c-6-0.4-13.9-2.2-10.9-9.6c0-0.1,0.1-0.1,0.1-0.2
				c1.5-3.5,5-6.2,9.1-8.3c8.5-4.4,19.6-6,19.6-6L193.8,148.6z"/>
		</g>
		<g>
			<path class="st7" d="M193.8,148.6c-8.7,1.2-16.4,6-28.9,5.3c-6-0.4-14-2.2-10.9-9.8c0,0,0,0,0,0c0.7,1.5,2.2,3.4,4.9,4.3
				c1.9,0.7,3.7,1.1,5.2,1.3c2.3,0.3,3.8-2.2,2.5-4.1c-1.8-2.6-3.7-6.3-3.5-9.8c8.5-4.4,19.6-6,19.6-6L193.8,148.6z"/>
		</g>
		<g>
			<path class="st2" d="M167.5,155.1c-0.8,0-1.7,0-2.6-0.1c-6.1-0.4-10-1.9-11.7-4.5c-1.1-1.8-1.2-4-0.2-6.5
				c4.5-11.3,28.6-15,29.6-15.1c0.6-0.1,1.1,0.3,1.2,0.9c0.1,0.6-0.3,1.1-0.9,1.2c-0.2,0-23.9,3.6-27.9,13.8c-0.7,1.9-0.7,3.4,0,4.5
				c1.3,2,4.8,3.2,10,3.5c7.8,0.5,13.6-1.3,19.2-3c3.2-1,6.2-1.9,9.4-2.3c0.6-0.1,1.1,0.3,1.2,0.9c0.1,0.6-0.3,1.1-0.9,1.2
				c-3,0.4-6,1.3-9.1,2.2C179.9,153.4,174.4,155.1,167.5,155.1z"/>
		</g>
		<g>
			<path class="st2" d="M163.7,146c-1.3,1.5-2.2,4-0.8,5.7c0.4,0.5,0.9,1,1.5,1.4c0.4,0.2,0.5,0.7,0.3,1.1c-0.3,0.4-0.8,0.5-1.2,0.2
				c-0.7-0.5-1.3-1.1-1.8-1.9c-0.5-0.8-0.8-1.7-0.7-2.6c0-1.8,1-3.3,2.2-4.5C163.5,145,164.1,145.6,163.7,146L163.7,146z"/>
		</g>
		<g>
			<path class="st2" d="M157.8,144.8c-1.1,1.4-1.5,3.4-0.9,5.1c0.1,0.1,0.2,0.5,0.3,0.7c0.1,0.1,0.3,0.5,0.4,0.6
				c0.2,0.3,0.4,0.6,0.7,0.9c0.3,0.4,0.2,0.9-0.2,1.1c-0.4,0.3-0.9,0.2-1.1-0.2c-0.2-0.4-0.5-0.7-0.7-1.1c-0.1-0.2-0.3-0.6-0.4-0.8
				c-0.1-0.2-0.2-0.7-0.3-0.9c-0.3-1.4-0.3-2.9,0.3-4.1c0.3-0.7,0.7-1.4,1.3-2c0.2-0.2,0.4-0.2,0.6,0
				C157.9,144.4,157.9,144.6,157.8,144.8L157.8,144.8z"/>
		</g>
		<g class="st8">
			<path class="st9" d="M329,127.1c-0.1-0.1-0.1-0.1-0.1-0.1s0,0,0,0C328.9,127.1,329,127.1,329,127.1z"/>
		</g>
		<g>
			<path class="st3" d="M339.1,140c-0.1,3.1-1.9,5.7-3.7,6.3c-3.2,1.2-6.2,1.1-12.4,0.8c0,0,0,0,0,0c-4.4,2.6-11,4.3-19.2,4.4h-0.1
				c-0.2,0-0.4,0-0.7,0c-11,5.7-21.6,6.3-33.5,6.9c-2.9,0.2-5.9,0.3-9,0.5l-1.8-4.4l-17.8-42.2l-0.2-1.1l-1.3-6.7
				c5.5,1.2,10.4,1.2,14.9,0.6c14.9-1.8,25.8-10,41.3-4.4c7.8,2.8,11.6,10.2,14.2,16.4c1.9,4.5,3.1,8.4,4.8,9.6
				c0.8,0.6,2.3,0.8,4.2,0.9c4.7,0.3,11.8,0.1,16.7,4.4C338.3,134.7,339.2,137.5,339.1,140z"/>
		</g>
		<g>
			<path class="st4" d="M339.1,140c-0.1,3.1-1.9,5.7-3.7,6.3c-3.2,1.2-6.2,1.1-12.4,0.8c0,0,0,0,0,0c-4.4,2.6-11,4.3-19.2,4.4h-0.1
				c2.8-2.5,6.5-6.4,7.7-10.6c0,0,1.3,4.4,5.1,4.7c4.4,0.3,5.8-6.9,5.8-6.9s1.5,2.6,4.2,3.9C330,144.2,336.3,144.5,339.1,140z"/>
		</g>
		<g>
			<path class="st10" d="M339.1,140c0,0.5-0.1,1-0.2,1.4c0,0.1,0,0.2-0.1,0.3c0,0.1-0.1,0.2-0.1,0.4c0,0.1-0.1,0.2-0.1,0.3
				c0,0.1-0.1,0.2-0.1,0.4c0,0.1-0.1,0.2-0.1,0.3c-0.3,0.8-0.8,1.6-1.3,2.1c-0.1,0.1-0.1,0.1-0.2,0.2c-0.1,0.1-0.1,0.1-0.2,0.2
				c-0.1,0.1-0.1,0.1-0.2,0.1c-0.1,0-0.1,0.1-0.2,0.1c-0.3,0.3-0.7,0.5-1.1,0.6c-3.2,1.2-6.2,1.1-12.4,0.8c0,0,0,0,0,0
				c-0.4-1.9-0.5-4.6-0.7-8.5c0,0,1.5,2.6,4.2,3.9C330,144.2,336.3,144.5,339.1,140z"/>
		</g>
		<g>
			<path class="st4" d="M268.4,131.1c0,10.1-3.9,19-9.7,23.5l-17.8-42.2l-0.2-1.1l-1.3-6.7c5.5,1.2,10.4,1.2,14.9,0.6
				C262.4,108.1,268.4,118.6,268.4,131.1z"/>
		</g>
		<g class="st11">
			<path class="st6" d="M309.8,117.3c-7-10-16.6-18.8-34.8-14.3c-15.3,3.8-29.6,7.2-34.3,8.3l-1.3-6.7c23.7,5,36.1-11.1,56.2-3.7
				C303.4,103.7,307.2,111.1,309.8,117.3z"/>
		</g>
		<g>
			<path class="st6" d="M335.4,146.4c-3.2,1.2-6.2,1.1-12.4,0.8c0,0,0,0,0,0c-0.4-1.9-0.5-4.6-0.7-8.5c-0.3-5.7-1.9-9-3.4-10.8
				c4.7,0.3,11.8,0.1,16.7,4.4C341.6,137.7,338.7,145.1,335.4,146.4z"/>
		</g>
		<g>
			<path class="st7" d="M339.1,140c0,0.5-0.1,1-0.2,1.4c0,0.1,0,0.2-0.1,0.3c0,0.1-0.1,0.2-0.1,0.4c0,0.1-0.1,0.2-0.1,0.3
				c0,0.1-0.1,0.2-0.1,0.4c0,0.1-0.1,0.2-0.1,0.3c-0.3,0.8-0.8,1.6-1.3,2.1c-0.1,0.1-0.1,0.1-0.2,0.2c-0.1,0.1-0.1,0.1-0.2,0.2
				c-0.1,0.1-0.1,0.1-0.2,0.1c-0.1,0-0.1,0.1-0.2,0.1c-0.3,0.3-0.7,0.5-1.1,0.6c-3.2,1.2-6.2,1.1-12.4,0.8c0,0,0,0,0,0
				c-0.4-1.9-0.5-4.6-0.7-8.5c0,0,1.5,2.6,4.2,3.9C330,144.2,336.3,144.5,339.1,140z"/>
		</g>
		<g>
			<path class="st6" d="M307.2,148c-0.1,0.1-1.4,1.6-3.4,3.5c-0.3,0-0.5,0-0.8,0c-11,5.7-21.6,6.3-33.5,6.9l12.4-12.9l0.2-0.3
				c0,0,7.6,10.5,23.5,3.4C306.1,148.5,306.7,148.2,307.2,148z"/>
		</g>
		<g>
			<path class="st7" d="M307.2,148c-0.1,0.1-1.4,1.6-3.4,3.5c-0.3,0-0.5,0-0.8,0c-11,5.7-21.6,6.3-33.5,6.9l12.4-12.9
				c1.4,2.6,4.7,6.7,11.9,7.4c4.4,0.5,8.5-1.6,11.8-4.2C306.1,148.5,306.7,148.2,307.2,148z"/>
		</g>
		<g>
			<path class="st2" d="M260.5,160c-0.4,0-0.8-0.3-1-0.7l-19.6-46.6c-0.2-0.6,0-1.2,0.6-1.4c0.6-0.2,1.2,0,1.4,0.6l19.3,45.8
				c2.8-0.2,5.5-0.3,8.1-0.5c12.1-0.6,22.5-1.2,33.3-6.8c0.2-0.1,0.3-0.1,0.5-0.1c7.9,0,14.8-1.5,19.4-4.2c0.2-0.1,0.4-0.2,0.6-0.1
				c5.9,0.3,8.9,0.4,11.9-0.7c1.1-0.4,2.4-2,2.9-4.3c0.3-1.7,0.4-5-3-8c-4-3.6-9.8-3.9-14.4-4.1c-2.9-0.1-5.2-0.2-6.5-1.2
				c-1.5-1.2-2.6-3.9-4-7.4c-2.6-6.5-6.2-15.4-14.6-18.5c-10-3.6-18.2-1.3-26.8,1.2c-8.6,2.5-17.5,5.1-29.3,2.6
				c-0.6-0.1-1-0.7-0.8-1.3c0.1-0.6,0.7-1,1.3-0.8c11.3,2.4,19.9-0.1,28.2-2.5c9-2.6,17.5-5.1,28.1-1.2c9.4,3.4,13.2,12.9,15.9,19.7
				c1.2,3,2.2,5.6,3.3,6.4c0.7,0.6,2.9,0.7,5.3,0.8c4.7,0.2,11.1,0.5,15.7,4.6c3,2.7,4.4,6.4,3.7,10c-0.5,2.8-2.2,5.2-4.2,5.9
				c-3.3,1.3-6.6,1.2-12.5,0.8c-4.9,2.8-12,4.3-20,4.4c-11.1,5.8-21.7,6.3-33.9,6.9C266.6,159.7,263.6,159.8,260.5,160
				C260.6,160,260.6,160,260.5,160z"/>
		</g>
		<g>
			<path class="st2" d="M331.8,137.4c1.7-0.1,4.9-0.3,5.5-2.2c0.3-1,1.8-0.6,1.6,0.4c-0.8,2.2-3.3,2.6-5.3,2.7c-0.6,0-1.2,0-1.8-0.1
				c-0.2,0-0.4-0.2-0.4-0.5C331.4,137.6,331.6,137.4,331.8,137.4L331.8,137.4z"/>
		</g>
		<g>
			<path class="st2" d="M331.6,143.4c1.8-0.1,5.9-0.3,6.5-2.2c0.3-1,1.8-0.7,1.6,0.4c-0.9,2.4-3.9,2.7-6.1,2.7c-0.7,0-1.4,0-2.1-0.1
				c-0.2,0-0.4-0.2-0.4-0.4C331.2,143.6,331.3,143.4,331.6,143.4L331.6,143.4z"/>
		</g>
		<g>
			<path class="st2" d="M311.9,141c-1.4,4.6-4.3,8.7-8.3,11.4c-1.3,0.8-2.5-1.1-1.1-1.9c2.9-1.6,5.2-4.1,6.9-6.9c0.6-1,1.1-2,1.5-3
				C311.2,140.1,312.1,140.4,311.9,141L311.9,141z"/>
		</g>
		<g class="st8">
			<g>
				<path class="st9" d="M178.4,136.5c0,0,0.1,0.1,0.1,0.1L178.4,136.5C178.3,136.4,178.3,136.4,178.4,136.5z"/>
			</g>
			<g>
				<path class="st9" d="M273.1,132.2l-0.1,0.1C273,132.3,273.1,132.3,273.1,132.2C273.1,132.3,273.1,132.2,273.1,132.2z"/>
			</g>
		</g>
		<g>
			<path class="st2" d="M171.1,124.7c-4.9-4.6-11.2-7.5-17.7-8.8c-0.9-0.2-1.9-0.3-2.9-0.5c-0.7-0.1-0.6-1.1,0.1-1.1
				c1,0.1,2,0.1,3,0.3c3,0.4,5.9,1.2,8.6,2.4c3.7,1.6,7.1,3.9,9.7,7C172.4,124.6,171.6,125.2,171.1,124.7L171.1,124.7z"/>
		</g>
		<g>
			<path class="st2" d="M170.4,132.3c-6.2-2.4-13.3-3.6-19.5-0.7c-0.6,0.3-1.1-0.6-0.5-1c4.7-2.8,10.5-2.8,15.6-1.3
				c1.7,0.5,3.3,1.2,4.9,2.1c0.3,0.2,0.3,0.5,0.2,0.7C171,132.3,170.6,132.4,170.4,132.3L170.4,132.3z"/>
		</g>
		<g>
			<path class="st12" d="M181.3,105.6L195.9,93l16.9-14.5c-9.8-9.6-28.8-19.9-34.5-16.3c-1.1,0.7-1.9,2.2-2.5,4.4
				C173.7,74.8,175.4,91.8,181.3,105.6z"/>
		</g>
		<g>
			<path class="st13" d="M181.3,105.6L195.9,93c-4.1-9.6-14.4-31.6-20.1-26.4C173.7,74.8,175.4,91.8,181.3,105.6z"/>
		</g>
		<g class="st11">
			<path class="st6" d="M175.6,67.6c0.5-1.2,1.1-2.1,1.9-2.6c5.5-3.5,23.3,5.9,33.4,15.2l1.9-1.7c-9.8-9.6-28.8-19.9-34.5-16.3
				C177,63.1,176.1,65,175.6,67.6z"/>
		</g>
		<g>
			<path class="st2" d="M181.3,106.6c-0.4,0-0.8-0.2-1-0.7c-7.3-17-8.7-40.8-2.6-44.6c4-2.6,12.2,0.9,16.8,3.1
				c6.9,3.4,14.2,8.5,19,13.3c0.4,0.4,0.4,1.1,0,1.5c-0.4,0.4-1.1,0.4-1.5,0c-10.5-10.4-28.5-19.1-33.1-16.2
				c-1.7,1.1-3.2,6.3-2.7,15.3c0.5,8.9,2.8,18.6,6.2,26.6c0.2,0.6,0,1.2-0.6,1.4C181.6,106.6,181.4,106.6,181.3,106.6z"/>
		</g>
		<g>
			<path class="st14" d="M182.1,91.3c3-4.3,5.5-7.2,7.7-9.4c1.9-1.9,3.6-3.3,5.2-4.4c-0.5-1.9-12.9-12.4-14.7-9
				c-0.6,1-0.9,2.6-1.1,4.4C178.6,78.6,179.7,87.1,182.1,91.3z"/>
		</g>
		<g>
			<path class="st15" d="M179.2,72.9c0.8-1,2-2.2,3.1-2c1.9,0.4,6,6.6,7.5,11c1.9-1.9,3.6-3.3,5.2-4.4c-0.5-1.9-12.9-12.4-14.7-9
				C179.7,69.5,179.4,71.1,179.2,72.9z"/>
		</g>
		<g>
			<path class="st2" d="M182,93.3l-0.9-1.5c-3.3-5.8-4.3-19.1-1.8-23.8l0,0c0.3-0.6,1.1-1.5,2.8-1.2c4.2,0.6,13.4,8.2,13.9,10.5
				l0.2,0.7l-0.6,0.4c-3.4,2.6-7.2,5.8-12.7,13.6L182,93.3z M181.3,69c-1.8,3.4-1.5,14.1,1,20.2c4.7-6.4,8.2-9.5,11.3-12
				c-1.8-2.2-8.8-8.1-11.9-8.3C181.3,68.9,181.3,69,181.3,69L181.3,69z"/>
		</g>
		<g>
			<path class="st12" d="M224.7,79.7l21.5,20.9l9.3,9c7.5-13.9,10.4-31.7,8.3-39.5c-0.4-1.6-1.1-2.8-2-3.4
				C256.1,62.5,235.5,71,224.7,79.7z"/>
		</g>
		<g>
			<path class="st4" d="M246.2,100.6l9.3,9c7.5-13.9,10.4-31.7,8.3-39.5c-1.9-2.3-4.9-4-7.8,3.4C252.9,81.2,248.6,93.5,246.2,100.6z
				"/>
		</g>
		<g class="st11">
			<path class="st6" d="M224.7,79.7L226,81c11.2-8.1,31.3-15.1,35.4-12.9c3.3,1.8,2.7,13.5,1.1,22.7c2.7-11.5,2.6-21.7-0.7-24.2
				C256.1,62.5,235.5,71,224.7,79.7z"/>
		</g>
		<g>
			<path class="st2" d="M255.5,110.7c-0.2,0-0.4,0-0.5-0.1c-0.5-0.3-0.7-0.9-0.4-1.5c4.1-7.6,7.2-17.1,8.3-26
				c1.3-9.6-0.1-14.4-1.7-15.6c-2.3-1.7-8.1-1-15.6,1.8c-7.2,2.7-15,7-20.2,11.1c-0.5,0.4-1.2,0.3-1.5-0.2c-0.4-0.5-0.3-1.2,0.2-1.5
				c5.4-4.3,13.4-8.7,20.8-11.5c4.9-1.8,13.7-4.4,17.6-1.5c6,4.4,2.8,28.1-6,44.4C256.2,110.5,255.8,110.7,255.5,110.7z"/>
		</g>
		<g class="st16">
			<path class="st6" d="M234.3,74c0.5,0.2,0.2,0.9-0.3,0.8c-3.5-0.8-6.8-1.3-9.9-1.5c-3.5-0.1-8.1-0.1-13.3,0.5
				c0.1-1.3,0.2-2.6,0.4-3.8c4.5-0.2,8.4,0,11.3,0.4C226.2,70.9,230.3,72.1,234.3,74z"/>
		</g>
		<g>
			<path class="st3" d="M216,160.6L216,160.6c3,0,5.9-0.3,8.9-0.7c24.6-3.4,35.1-13.4,38.5-20.8c0.1-0.2,0.2-0.4,0.3-0.7
				c0.1-0.1,0.1-0.3,0.2-0.4c0.1-0.3,0.3-0.7,0.4-1c0.1-0.2,0.1-0.4,0.2-0.6c0,0,0,0,0,0c0,0,0-0.1,0-0.1c0-0.2,0.1-0.3,0.1-0.5
				c0.1-0.2,0.1-0.4,0.1-0.6c0-0.2,0.1-0.3,0.1-0.5c0-0.2,0.1-0.4,0.1-0.6c0.1-0.4,0.1-0.7,0.2-1.1c0-0.1,0-0.2,0.1-0.4
				c0-0.1,0-0.3,0.1-0.4c0-0.2,0-0.3,0.1-0.5c0.7-5.8-0.3-12-1.9-18c-1.6-5.9-3.8-11.4-5.7-15.8c0,0-2.8-5.6-9.4-12.9
				c-5.7-6.2-11-9.6-12.4-10.5c-0.2-0.2-0.4-0.2-0.4-0.2c-4.4-2.1-9-3.6-12.9-4.1c-6.4-0.8-17.7-1.2-29.5,3.4
				c-9.2,3.6-14.9,10-18.6,16.8c-5.4,9.9-6.4,20.8-7.2,25.1c-0.2,1.2-2.4,4.2-3.7,8.7l0,0c-0.1,0.3-0.2,0.7-0.3,1
				c0,0.2-0.1,0.3-0.1,0.5c0,0.2-0.1,0.4-0.1,0.5c0,0,0,0,0,0c0,0.2-0.1,0.3-0.1,0.5c0,0.1,0,0.2,0,0.3c0,0.3-0.1,0.6-0.1,0.9
				c0,0.2,0,0.4-0.1,0.6c0,0.2,0,0.3,0,0.5c0,0.1,0,0.1,0,0.2c0,0.2,0,0.3,0,0.5c0,0.2,0,0.4,0,0.6c0,0.4,0,0.8,0,1.2
				c0,0.2,0,0.4,0.1,0.6c0,0,0,0,0,0c0,0.2,0,0.4,0.1,0.6c0,0.1,0,0.1,0,0.2c0,0.2,0.1,0.4,0.1,0.6c0.1,0.3,0.1,0.6,0.2,0.9
				c2,9.3,13.8,18.7,33.4,23.7C203,160,209.5,160.7,216,160.6z"/>
		</g>
		<g>
			<ellipse class="st4" cx="213.3" cy="73" rx="11.3" ry="2.6"/>
		</g>
		<g>
			<path class="st6" d="M170.7,146.1c5.7,5,14.5,9.4,25.8,12.3c6.4,1.6,12.9,2.3,19.5,2.2h0c3,0,5.9-0.3,8.9-0.7
				c24.6-3.4,35.1-13.4,38.5-20.8c0.1-0.2,0.2-0.4,0.3-0.7c0.1-0.1,0.1-0.3,0.2-0.4c0.1-0.3,0.3-0.7,0.4-1c0.1-0.2,0.1-0.4,0.2-0.6
				c0,0,0,0,0,0c0.1-0.2,0.1-0.4,0.2-0.6c0.1-0.2,0.1-0.4,0.1-0.6c0-0.2,0.1-0.3,0.1-0.5c0-0.2,0.1-0.4,0.1-0.6
				c0.1-0.4,0.1-0.7,0.2-1.1c0-0.1,0-0.2,0.1-0.4c0-0.1,0-0.3,0.1-0.4c0-0.2,0-0.3,0.1-0.5c-1.3,0.8-2.7,1.7-4.4,2.6
				c-6.9,3.8-16.5,7.6-27,7.1c-16-0.8-22.2-10.8-25.6-13.4c-2.8-2.1-8.7-3.4-11.7,0.2c-3.2,3.9-11.6,7.1-19.4,6.3
				c-5.9-0.6-11.3-3.4-13.5-10.1c-0.1,0.3-0.2,0.7-0.3,1c0,0.2-0.1,0.3-0.1,0.5c0,0.2-0.1,0.4-0.1,0.5c0,0,0,0,0,0
				c0,0.2-0.1,0.3-0.1,0.5c0,0.1,0,0.2,0,0.3c0,0.3-0.1,0.6-0.1,0.9c0,0.2,0,0.4-0.1,0.6c0,0.2,0,0.3,0,0.5c0,0.1,0,0.1,0,0.2
				c0,0.2,0,0.3,0,0.5c0,0.2,0,0.4,0,0.6c0,0.4,0,0.8,0,1.2c0,0.2,0,0.4,0.1,0.6c0,0,0,0,0,0c0,0.2,0,0.4,0.1,0.6c0,0.1,0,0.1,0,0.2
				c0,0.2,0.1,0.4,0.1,0.6c0.1,0.3,0.1,0.6,0.2,0.9C164.1,138.6,166.6,142.5,170.7,146.1z"/>
		</g>
		<g>
			<path class="st7" d="M264.9,134.2c0,0.2-0.1,0.4-0.1,0.6c0,0.2-0.1,0.3-0.1,0.5c0,0.2-0.1,0.4-0.1,0.6c0,0.2-0.1,0.4-0.2,0.6
				c0,0,0,0,0,0c-0.1,0.2-0.1,0.4-0.2,0.6c-0.1,0.3-0.2,0.7-0.4,1c-0.1,0.1-0.1,0.3-0.2,0.4c-0.1,0.2-0.2,0.4-0.3,0.7
				c-3.3,7.4-13.9,17.5-38.5,20.8c-2.9,0.4-5.9,0.6-8.8,0.7c-6.6,0.1-13.1-0.6-19.5-2.2c-11.4-2.9-20.1-7.3-25.9-12.3
				c-4.1-3.6-6.6-7.4-7.4-11.3c-0.1-0.3-0.1-0.6-0.2-0.9c0-0.2-0.1-0.4-0.1-0.6c0-0.1,0-0.1,0-0.2c0-0.2,0-0.4-0.1-0.6c0,0,0,0,0,0
				c0-0.1,0-0.2,0-0.4c1.3,1.8,9.5,16.4,32.9,19.6C243.7,158.1,259.5,141.4,264.9,134.2z"/>
		</g>
		<g>
			<path class="st2" d="M258.2,97.9c5.6,12.3,11.8,28.9,5.9,42.1c-2.6,5.4-7.2,9.5-12.3,12.6c-8.1,4.9-17.5,7.3-26.8,8.6
				c-5,0.7-10.1,0.9-15.2,0.5c-2.9-0.2-5.8-0.4-8.7-1c-13.6-2.6-35-10.3-39-25.1c-1.7-7,0.4-13.2,3.7-19.3c0.1-0.2,0.2-0.5,0.3-0.7
				c1.3-8.9,3.1-18,7.6-25.9c6.1-11.1,15.7-17,28-19.4c7.1-1.5,14.5-1.7,21.7-0.5c4.3,0.8,8.4,2.4,12.3,4.4c0.3,0.1,0.4,0.5,0.2,0.7
				c-0.1,0.3-0.4,0.4-0.7,0.2c-1.3-0.6-2.6-1.1-4-1.5c-2.6-0.9-5.4-1.6-8.1-2c-7-0.9-14.1-0.6-21,0.8c-8.1,1.7-16.1,5.2-21.7,11.6
				c-7.8,8.8-10.4,20.7-12.1,32c-0.1,0.4-0.3,0.9-0.4,1.3c-3,5.7-5.1,11.3-3.5,17.7c3.4,12.4,21.5,19.7,33,22.5
				c2.2,0.5,4.4,1,6.7,1.3c1.9,0.2,3.9,0.4,5.8,0.5c5.6,0.5,11.3,0.1,16.8-0.8c12.8-2.1,29-7.2,35.3-19.5c3.5-7.7,2.3-16.6,0.4-24.5
				c-1.4-5.5-3.3-10.9-5.4-16.2C256.9,97.7,257.9,97.2,258.2,97.9L258.2,97.9z"/>
		</g>
		<g>
			<g>
				<path class="st2" d="M178.8,98.6c0.4,0.9,10.4,2.1,12.2-4.6c0.7-2.4-1.4-3.2-2.7-2.4c-1.3,0.8-2.3,2.6-3.8,3.7
					C181.5,97.4,178.3,97.7,178.8,98.6z"/>
			</g>
			<g>
				<path class="st2" d="M236.2,99.2c-0.5,1-11.5,2-13.4-5.4c-0.7-2.7,1.6-3.5,3-2.6c1.4,0.9,2.5,2.9,4.1,4.1
					C233.2,97.7,236.7,98.2,236.2,99.2z"/>
			</g>
		</g>
		<g>
			<path class="st14" d="M243.2,80.3c3.3,2.9,7.2,6.5,12.5,15c0.3-0.4,0.6-0.9,0.9-1.4c1.9-3.6,3.2-9.3,3.4-14
				c0.2-3-0.1-5.6-0.8-7.1C257.5,69.1,243.8,78.4,243.2,80.3z"/>
		</g>
		<g>
			<path class="st15" d="M243.2,80.3c3.3,2.9,7.2,6.5,12.5,15c0.3-0.4,0.6-0.9,0.9-1.4c-0.3-3.4-3-7.2-3.9-10.1
				c-2-6.1,2.7-9.7,4.4-9c1,0.4,2.4,3.7,3,5.1c0.2-3-0.1-5.6-0.8-7.1C257.5,69.1,243.8,78.4,243.2,80.3z"/>
		</g>
		<g>
			<path class="st2" d="M255.7,96.4C255.7,96.4,255.7,96.4,255.7,96.4c-0.4,0-0.7-0.2-0.9-0.5c-5.1-8.3-8.9-11.9-12.2-14.8
				c-0.3-0.3-0.5-0.7-0.3-1.2c0.7-2.1,10.6-8.9,15.1-9.1c1.9-0.1,2.7,0.9,2.9,1.4l0,0c2.3,4.9,0.3,18.2-3.6,23.7
				C256.4,96.2,256,96.4,255.7,96.4z M244.7,80.1c3.1,2.7,6.5,6.2,11,13.1c3-5.8,4.2-16.5,2.5-20.1c-0.1-0.1-0.3-0.2-0.6-0.2
				C254.4,72.9,246.7,78.1,244.7,80.1z"/>
		</g>
		<g>
			<path class="st2" d="M250.1,131.7c3.4-2.4,7.4-3.6,11.4-4.1c3.1-0.4,6.4-0.3,9.5,0.1c0.3,0,0.9,0.2,1.1,0.2
				c0.5,0.1,1,0.2,1.5,0.3c0.3,0.1,0.5,0.3,0.4,0.6c-0.1,0.3-0.3,0.5-0.6,0.4c-0.7-0.1-1.5-0.2-2.2-0.3c-3.1-0.3-6.3-0.3-9.5,0.1
				c-3.8,0.6-7.6,1.6-11,3.4C250.1,133,249.5,132.2,250.1,131.7L250.1,131.7z"/>
		</g>
		<g>
			<path class="st2" d="M249.1,139.1c7-1.6,15.2-0.2,20.2,5.1c0.5,0.5-0.2,1.2-0.8,0.8c-2.6-2.2-5.8-3.6-9.1-4.3
				c-3.3-0.7-6.8-0.8-10.2-0.5C248.6,140.3,248.4,139.3,249.1,139.1L249.1,139.1z"/>
		</g>
		<g>
			<g>
				<path class="st2" d="M208.4,137.5c-0.1,0.7-0.4,2-0.9,3.5c-0.8,2.5-2.3,5.3-4.5,5.1c-2-0.1-2.6-2-2.9-4.6c0-0.1,0-0.2,0-0.4
					c-0.3-2-0.8-4.4-2.8-7.1l10.8,2.9C208.3,137,208.4,137.3,208.4,137.5z"/>
			</g>
		</g>
		<g>
			<path class="st17" d="M207.5,140.9c-0.8,2.5-2.3,5.3-4.5,5.1c-2-0.1-2.6-2-2.9-4.6c0-0.1,0-0.2,0-0.4c0.8-0.2,1.7-0.1,2.8,0.7
				C202.8,141.8,205.1,140.5,207.5,140.9z"/>
		</g>
		<g>
			<path class="st12" d="M274,160.5c-0.9,0.3-1.6,0.5-2.1,0.7c-6.1,2-14.6,3-22.3,3c-8.4,0-13.8-2.8-10.9-9.1
				c0.2-0.4,0.4-0.8,0.6-1.2c1.1-2,2.8-3.6,4.6-4.9c7.2-4.9,18.6-5.2,23.2-3.9l15.1,0.1c0,0,0,0,0,0
				C282.9,156,277.4,159.2,274,160.5z"/>
		</g>
		<g>
			<path class="st4" d="M274,160.5c-0.9,0.3-1.6,0.5-2.1,0.7c-6.1,2-14.6,3-22.3,3c-8.4,0-13.8-2.8-10.9-9.1
				c0.2-0.4,0.4-0.8,0.6-1.2c0,1.6,0.7,3.4,3.5,4.3c9.2,3.1,25.6,2.2,33.4-2.7c5.8-3.6,5.9-9.9,5.9-10.2
				C282.9,156,277.4,159.2,274,160.5z"/>
		</g>
		<g>
			<path class="st10" d="M274,160.5c-0.9,0.3-1.6,0.5-2.1,0.7c-6.1,2-14.6,3-22.3,3c-8.4,0-13.8-2.8-10.9-9.1
				c0.1-0.1,0.1-0.3,0.2-0.4c0-0.1,0.1-0.1,0.1-0.2c0-0.1,0.1-0.1,0.1-0.2c0-0.1,0.1-0.1,0.1-0.2c0.1-0.1,0.1-0.2,0.2-0.3
				c0,1.6,0.7,3.4,3.5,4.3c6.7,2.3,17.3,2.4,25.5,0.4C270.3,160,272.3,160.5,274,160.5z"/>
		</g>
		<g>
			<path class="st6" d="M274,160.5c-0.9,0.3-1.6,0.5-2.1,0.7c-6.1,2-14.6,3-22.3,3c-8.4,0-13.8-2.8-10.9-9.1c1.1-2.6,3-4.6,5.3-6.1
				c4.9-1.9,12.8-3,19.3,4.8C267.3,158.8,271,160.5,274,160.5z"/>
		</g>
		<g>
			<path class="st7" d="M274,160.5c-0.9,0.3-1.6,0.5-2.1,0.7c-6.1,2-14.6,3-22.3,3c-8.4,0-13.8-2.8-10.9-9.1
				c0.1-0.1,0.1-0.3,0.2-0.4c0-0.1,0.1-0.1,0.1-0.2c0-0.1,0.1-0.1,0.1-0.2c0-0.1,0.1-0.1,0.1-0.2c0.1-0.1,0.1-0.2,0.2-0.3
				c0,1.6,0.7,3.4,3.5,4.3c6.7,2.3,17.3,2.4,25.5,0.4C270.3,160,272.3,160.5,274,160.5z"/>
		</g>
		<g>
			<path class="st2" d="M282.7,145.3c1.2,6.4-0.8,13-7.1,15.8c-1.9,0.8-3.8,1.3-5.7,1.9c-5.7,1.5-11.7,2.2-17.6,2.4
				c-3,0.1-6.1,0.1-9-0.7c-7.2-1.7-8.1-7.2-3.9-12.8c3.8-5,10-7.3,16-8.1c4-0.5,8.2-0.6,11.9,0.9c0.6,0.3,0.3,1.1-0.3,1
				c-1.9-0.2-3.8-0.3-5.6-0.2c-5.6,0.2-11.4,1.2-16.2,4.1c-3,1.8-5.7,4.8-6.1,8.3c-0.2,3.8,4.5,4.7,7.5,5c3.8,0.3,7.7,0,11.5-0.3
				c5.7-0.6,11.4-1.5,16.7-3.6c4.4-1.9,6.3-6.3,6.8-10.9c0.1-0.9,0.1-1.9,0.2-2.9C281.6,144.7,282.5,144.6,282.7,145.3L282.7,145.3z
				"/>
		</g>
		<g>
			<path class="st2" d="M249.8,155.9c-1.8,1.5-2.3,4-1,6c0.4,0.7,0.9,1.3,1.4,1.8c0.3,0.3,0.3,0.8,0,1.2c-0.3,0.3-0.9,0.3-1.2-0.1
				c-1.1-1.4-2.1-3.1-2.1-4.9c0-1.9,1-3.6,2.5-4.7C249.7,154.9,250.2,155.6,249.8,155.9L249.8,155.9z"/>
		</g>
		<g>
			<path class="st2" d="M243.2,155.3c-1.3,1.5-1.9,3.9-1.1,5.8c0.1,0.3,0.3,0.7,0.4,0.9c0.2,0.3,0.4,0.6,0.6,0.9
				c0.3,0.4,0.1,0.9-0.2,1.1c-0.4,0.3-0.9,0.1-1.1-0.2c-0.2-0.4-0.4-0.7-0.6-1.1c0,0-0.2-0.6-0.2-0.6c-0.4-1-0.6-2-0.5-3.1
				c0.2-1.7,0.9-3.2,2.1-4.3C243.1,154.4,243.6,154.9,243.2,155.3L243.2,155.3z"/>
		</g>
		<g>
			<path class="st2" d="M233.3,121c0.4,4.1-2.1,8.6-6.3,9.7c-7.2,1.5-12.5-3.8-11.4-10.9c0.1-0.6,0.2-1.2,0.5-1.9
				c0.1-0.4,0.6-0.6,1-0.5c0.3,0.1,0.5,0.4,0.5,0.6c0.2,2.1,0.5,4.5,1.5,6.3c0.9,1.8,2.4,2.8,4.4,3.1c1.9,0.3,3.8,0.1,5.3-1.2
				c1.4-1.3,2.3-3.3,3.2-5.4C232.1,120.1,233.2,120.2,233.3,121L233.3,121z"/>
		</g>
		<g>
			<path class="st2" d="M179.8,118.3c0.9,2.8,1.6,6,4.2,7.1c1.5,0.5,3.5,0.4,4.9-0.6c1.5-1.1,2.2-3,2.8-4.9c0.3-1,0.5-2.1,0.8-3.2
				c0.1-0.4,0.5-0.7,0.9-0.6c0.3,0.1,0.5,0.3,0.6,0.6c0.2,0.6,0.2,1.2,0.3,1.8c0.4,4.7-2.1,9.9-7.3,10.4c-5.4,0.7-9-3.7-8.9-8.8
				c0-0.6,0.1-1.2,0.2-1.8c0.1-0.4,0.5-0.7,0.9-0.6C179.5,117.8,179.7,118.1,179.8,118.3L179.8,118.3z"/>
		</g>
		<g>
			<g>
				<path class="st18" d="M216.5,69.9c0,0-3.2,0.9-2.6,1.9c0.5,0.8,2.1-0.4,2.1-0.4s-0.3,1.2,0.7,1.2c1,0,0.7-1.2,0.7-1.2
					s1.7,1.1,2.1,0.4c0.6-1.1-2.6-1.9-2.6-1.9"/>
			</g>
			<g>
				<path class="st2" d="M216.8,72.9c-0.4,0-0.6-0.2-0.8-0.3c-0.2-0.2-0.2-0.4-0.2-0.7c-0.4,0.2-1,0.5-1.5,0.4
					c-0.2,0-0.4-0.2-0.5-0.4c-0.1-0.2-0.2-0.5-0.1-0.7c0.4-0.9,2.6-1.5,2.8-1.6c0.1,0,0.2,0,0.3,0.1c0.1-0.1,0.2-0.1,0.3-0.1
					c0.2,0.1,2.4,0.7,2.8,1.6c0.1,0.2,0.1,0.5-0.1,0.7c-0.1,0.2-0.3,0.3-0.5,0.4c-0.5,0.1-1.1-0.2-1.5-0.4c0,0.2-0.1,0.5-0.2,0.7
					C217.4,72.7,217.2,72.9,216.8,72.9z M216.1,71.1c0.1,0,0.1,0,0.2,0c0.1,0.1,0.1,0.2,0.1,0.3c0,0.1-0.1,0.6,0.1,0.8
					c0,0,0.1,0.1,0.3,0.1c0.2,0,0.3-0.1,0.3-0.1c0.1-0.2,0.1-0.6,0.1-0.8c0-0.1,0-0.2,0.1-0.3c0.1-0.1,0.2-0.1,0.3,0
					c0.4,0.3,1.2,0.7,1.6,0.6c0.1,0,0.1-0.1,0.2-0.1c0-0.1,0.1-0.2,0-0.2c-0.2-0.5-1.6-1.1-2.4-1.3c-0.1,0-0.1-0.1-0.1-0.1
					c0,0-0.1,0.1-0.1,0.1c-0.8,0.2-2.2,0.8-2.4,1.3c0,0.1,0,0.2,0,0.2c0,0.1,0.1,0.1,0.2,0.1c0.4,0.1,1.2-0.3,1.6-0.6
					C216,71.2,216,71.1,216.1,71.1z"/>
			</g>
			<g>
				<path class="st18" d="M208.4,69.9c0,0-3.2,0.9-2.6,1.9c0.5,0.8,2.1-0.4,2.1-0.4s-0.3,1.2,0.7,1.2c1,0,0.7-1.2,0.7-1.2
					s1.7,1.1,2.1,0.4c0.6-1.1-2.6-1.9-2.6-1.9"/>
			</g>
			<g>
				<path class="st2" d="M208.6,72.9c-0.4,0-0.6-0.2-0.8-0.3c-0.2-0.2-0.2-0.4-0.2-0.7c-0.4,0.2-1,0.5-1.5,0.4
					c-0.2,0-0.4-0.2-0.5-0.4c-0.1-0.2-0.2-0.5-0.1-0.7c0.4-0.9,2.6-1.5,2.8-1.6c0.1,0,0.2,0,0.3,0.1c0.1-0.1,0.2-0.1,0.3-0.1
					c0.2,0.1,2.4,0.7,2.8,1.6c0.1,0.2,0.1,0.5-0.1,0.7c-0.1,0.2-0.3,0.3-0.5,0.4c-0.5,0.1-1.1-0.2-1.5-0.4c0,0.2-0.1,0.5-0.2,0.7
					C209.3,72.7,209.1,72.9,208.6,72.9z M208,71.1c0.1,0,0.1,0,0.2,0c0.1,0.1,0.1,0.2,0.1,0.3c0,0.1-0.1,0.6,0.1,0.8
					c0,0,0.1,0.1,0.3,0.1c0.2,0,0.3-0.1,0.3-0.1c0.1-0.2,0.1-0.6,0.1-0.8c0-0.1,0-0.2,0.1-0.3c0.1-0.1,0.2-0.1,0.3,0
					c0.4,0.3,1.2,0.7,1.6,0.6c0.1,0,0.1-0.1,0.2-0.1c0-0.1,0.1-0.2,0-0.2c-0.2-0.5-1.6-1.1-2.4-1.3c-0.1,0-0.1-0.1-0.1-0.1
					c0,0-0.1,0.1-0.1,0.1c-0.8,0.2-2.2,0.8-2.4,1.3c0,0.1,0,0.2,0,0.2c0,0.1,0.1,0.1,0.2,0.1c0.4,0.1,1.2-0.3,1.6-0.6
					C207.9,71.2,207.9,71.1,208,71.1z"/>
			</g>
			<g>
				<path class="st19" d="M211,70.8c12.2,1.1,13.8-9.6,13-11.4c-0.4-0.8-1.2-0.7-2.6-1c-1.4-0.3-2.4-1.5-3.3-2.8
					c-0.8-1.1-1.5-2.1-2.4-2.4L205,52.8c-1.1,0.8-1.9,1.9-2.6,3C198.9,61.5,200.7,69.8,211,70.8z"/>
			</g>
			<g>
				<path class="st4" d="M202.4,55.7c2,1.1,4.7,1.7,7.8,1.7c3.1,0,5.9-0.7,7.9-1.8c-0.8-1.1-1.5-2.1-2.4-2.4L205,52.8
					C204,53.6,203.1,54.6,202.4,55.7z"/>
			</g>
			<g>
				<path class="st4" d="M200.8,62.6c0.5,4,3.6,7.6,10.2,8.2c8.8,0.8,12.1-4.5,12.9-8.2c-1.5,2.8-4.9,5.1-11.7,5.1
					C206.5,67.6,202.7,65.5,200.8,62.6z"/>
			</g>
			<g>
				<path class="st2" d="M212.8,71.7c-0.6,0-1.2,0-1.8-0.1c-5.5-0.5-9.4-3.2-10.6-7.3c-1.3-4.2,0.5-9.2,4.2-12.2
					c0.4-0.3,0.9-0.2,1.1,0.1c0.3,0.4,0.2,0.9-0.1,1.1c-3.2,2.6-4.7,6.9-3.6,10.4c1.1,3.5,4.3,5.7,9.2,6.1c6,0.5,9-1.9,10.5-4.1
					c1.8-2.7,1.9-5.6,1.6-6.1c-0.1-0.2-0.2-0.3-1.1-0.4c-0.3,0-0.6-0.1-1-0.2c-1.8-0.3-3-1.9-4-3.3c-0.6-0.8-1.2-1.7-1.8-1.9
					c-0.4-0.1-0.7-0.6-0.5-1c0.1-0.4,0.6-0.7,1-0.5c1.1,0.3,1.8,1.4,2.6,2.5c0.9,1.2,1.8,2.4,3,2.7c0.3,0.1,0.6,0.1,0.9,0.1
					c0.9,0.1,1.8,0.2,2.3,1.3c0.6,1.2,0.3,4.8-1.7,7.7C221.4,69.1,218.4,71.7,212.8,71.7z"/>
			</g>
			<g>
				<path class="st20" d="M216.3,59.4c1.4,4.2,6.1,2,5.9,0.2c-0.1-0.7-1.6-0.5-2.7-1.5c-0.5-0.4-1-1.1-1.5-1.8L216.3,59.4z"/>
			</g>
			<g>
				<path class="st19" d="M216.3,59c1.4,4.2,5.8,1.4,5.5,0.1c-0.1-0.7-1.2-0.8-2.4-1.8c-0.5-0.4-1-1.1-1.5-1.8"/>
			</g>
			<g>
				<path class="st20" d="M216.3,59c1.4,4.2,5.8,1.4,5.5,0.1c0-0.1-0.1-0.2-0.1-0.2c-1,1.2-4,2.5-5.4,0L216.3,59z"/>
			</g>
			<g>
				<path class="st2" d="M216.7,58.9c0.8,0.6,1,1.3,1.9,1.5c0.8,0.1,2-0.4,2.4-1.1c0,0,0,0,0,0c0,0,0,0.1,0,0.1c0,0,0,0,0,0
					c-0.1-0.1-0.3-0.2-0.5-0.3c-0.8-0.4-1.6-0.9-2.2-1.6c-0.4-0.5-0.7-0.9-1-1.3c-0.3-0.4-0.2-0.9,0.2-1.1c0.4-0.3,0.9-0.2,1.1,0.2
					c0.5,0.6,0.9,1.2,1.4,1.7c0.9,0.8,3,1.2,2.6,2.9c-0.5,1.7-2.6,2.7-4.3,2.4c-1.1-0.2-2-0.9-2.3-1.9c-0.1-0.3-0.1-0.6-0.1-1
					C216,58.8,216.5,58.7,216.7,58.9L216.7,58.9z"/>
			</g>
			<g>
				<path class="st19" d="M191.7,42.9c0,9.9,8,12.6,18,12.6s18-2.7,18-12.6s-8-17.4-18-17.4S191.7,33,191.7,42.9z"/>
			</g>
			<g class="st21">
				<path class="st6" d="M191.7,42.9c0,0.2,0,0.3,0,0.5c0.2-9.7,8.2-16.9,18-16.9c9.8,0,17.7,7.3,18,16.9c0-0.2,0-0.3,0-0.5
					c0-9.9-8-17.4-18-17.4C199.7,25.5,191.7,33,191.7,42.9z"/>
			</g>
			<g>
				<path class="st4" d="M191.7,42.9c0,9.9,8,12.6,18,12.6c9.9,0,18-2.7,18-12.6c0-0.4,0-0.8,0-1.1c-0.6,9-8.4,11.5-17.9,11.5
					c-9.5,0-17.3-2.5-17.9-11.5C191.7,42.2,191.7,42.5,191.7,42.9z"/>
			</g>
			<g>
				<path class="st2" d="M215.2,54.8c3.5-1.1,7.4-2.1,9.6-5.2c1.6-2.2,2-5.2,1.8-7.9c-0.5-8.7-8.4-15.4-17-15.2
					c-8.6-0.2-16.5,6.5-17.1,15.2c-0.4,4.9,1.3,9.2,6,11.2c1.7,0.8,3.5,1.3,5.4,1.9c0.2,0.1,0.3,0.3,0.3,0.5
					c-0.1,0.2-0.2,0.3-0.4,0.3c-1,0-2-0.1-3-0.3c-3.1-0.6-6-2.2-7.9-4.8c-1.9-2.6-2.4-5.9-2.1-9c0.5-9.7,9.3-17.1,18.8-16.9
					c9.9-0.1,18.7,7.7,18.8,17.8c0.2,5.4-2.1,9.9-7.2,12.1c-1.9,0.8-3.9,1.2-6,1.2C214.9,55.6,214.8,54.9,215.2,54.8L215.2,54.8z"/>
			</g>
			<g>
				<path class="st4" d="M202.4,27.2c0.4,0.1,0.8,0.2,1.1,0.4l3.6,1l3.2-2c0.1-0.7,0.1-1.4-0.1-2.1c0,0,0,0,0,0
					c-0.4-2.1-1.9-4.1-3.5-3.8c-1.3,0.3-0.6,1.6,0,2.7c0.3,0.6,0.6,1.2,0.6,1.6c-0.1-0.1-0.3-0.3-0.4-0.4c-1.3-1.1-2.9-1.9-3.8-1
					c-0.8,0.9,1.3,2.1,1.9,2.5l0.1,0l0,0l0.1,0v0c0,0-0.3-0.1-0.8-0.3c0,0,0,0,0,0c-1-0.3-2.5-0.6-2.7,0.3
					C201.5,26.9,201.9,27.1,202.4,27.2z"/>
			</g>
			<g class="st21">
				<path class="st6" d="M202.4,27.2c-0.4-1.5,2-1.2,2-1.2s0,0,0,0c-1-0.3-2.5-0.6-2.7,0.3C201.5,26.9,201.9,27.1,202.4,27.2z"/>
			</g>
			<g class="st21">
				<path class="st6" d="M206.7,23.5c-0.1-0.7-0.2-1.9,0.8-1.8c1.4,0.1,2.7,2.7,2.8,2.8c-0.4-2.1-1.9-4.1-3.5-3.8
					C205.4,21,206.1,22.3,206.7,23.5z"/>
			</g>
			<g class="st21">
				<polygon class="st6" points="205.1,26.2 205.1,26.2 205.1,26.2 				"/>
			</g>
			<g class="st21">
				<path class="st6" d="M205,26.1L205,26.1l0.1,0.1l0.1,0c-0.1-0.1-1.9-1.4-1.2-1.8c1.3-0.6,3.2,0.8,3.2,0.9l-0.4-0.7
					c-1.3-1.1-2.9-1.9-3.8-1C202.2,24.6,204.3,25.8,205,26.1z"/>
			</g>
			<g>
				<path class="st2" d="M210,26.6c-0.2-1.5-0.4-3-1.3-4.2c-0.5-0.7-1.2-1.3-2-1c-0.1,0-0.1,0.1-0.2,0.1c0,0.1,0,0.2,0.1,0.4
					c0.1,0.7,2.1,3.5,0.6,3.7c-0.1,0-0.3-0.1-0.4-0.2c-0.8-0.8-2-1.8-3.1-1.6c-0.1,0-0.3,0.2-0.3,0.3c0.2,0.7,1.3,1.2,2,1.6
					c0.7,0,0.7,1.1,0,1.1c-0.1,0-0.3-0.1-0.4-0.1c-0.8-0.2-1.8-0.6-2.6-0.5c-0.1,0-0.1,0-0.1,0.2c0,0.1,0,0.1,0,0.1
					c0.1,0.2,0.5,0.3,0.7,0.4c0.2,0.1,1.1,0.5,0.8,0.9c-0.1,0.1-0.2,0.1-0.3,0c-0.2-0.1-0.4-0.1-0.7-0.1c-0.4-0.1-1.1-0.1-1.4-0.6
					c-0.2-0.4-0.2-0.9,0-1.3c0.3-0.6,1.1-0.7,1.6-0.7c0.9,0,1.7,0.3,2.5,0.7c0,0-0.4,1-0.4,1c-0.9-0.5-1.7-1-2.3-1.8
					c-0.5-0.8-0.1-1.8,0.8-2.1c1.6-0.5,3.2,0.8,4.3,1.8c0,0-0.9,0.3-0.9,0.3c-0.2-0.9-0.9-1.7-1.2-2.7c-0.5-1.4,0.5-2.3,1.9-2.2
					c1,0.1,1.8,0.9,2.3,1.6c0.6,1,1,2.1,1.2,3.2c0,0.4,0,2.1-0.7,1.8C210.1,26.7,210,26.7,210,26.6L210,26.6z"/>
			</g>
			<g>
				<path class="st22" d="M207.5,46.4c0,0.5,0.1,0.9,0.4,1.3c0.4,0.6,1.1,1.1,1.7,1.1c0.6,0,1.3-0.4,1.7-1.1
					c0.2-0.4,0.4-0.8,0.4-1.3C211.7,45.1,207.5,45.1,207.5,46.4z"/>
			</g>
			<g>
				<path class="st2" d="M209.6,49.2c-1.2,0-2.5-1.2-2.5-2.7c0-1,1.4-1.4,2.5-1.4c1.2,0,2.5,0.4,2.5,1.4
					C212.1,48,210.8,49.2,209.6,49.2z M209.6,45.9c-1.1,0-1.7,0.3-1.7,0.6c0,1.1,0.9,1.9,1.7,1.9c0.8,0,1.7-0.8,1.7-1.9
					c0-0.2-0.3-0.3-0.4-0.3C210.6,46,210.1,45.9,209.6,45.9z"/>
			</g>
			<g>
				<ellipse class="st23" cx="221.1" cy="45.6" rx="2.2" ry="1.2"/>
			</g>
			<g>
				<ellipse class="st23" cx="198.2" cy="45.6" rx="2.2" ry="1.2"/>
			</g>
			<g>
				<path class="st24" d="M207.2,46c0,1.6,4.9,1.6,4.9,0c0-1.6-1.1-3-2.4-3S207.2,44.4,207.2,46z"/>
			</g>
			<g>
				<path class="st22" d="M207.2,46c0,1.6,4.9,1.6,4.9,0c0-0.2,0-0.4-0.1-0.6c-0.5,1.2-4.2,1.2-4.8,0
					C207.2,45.6,207.2,45.8,207.2,46z"/>
			</g>
			<g class="st21">
				<path class="st6" d="M207.2,46c0,0.1,0,0.2,0,0.3c0.2-1,0.7-1.8,1.5-2.2c0.1,0.2,0.4,0.4,0.9,0.4c0.5,0,0.8-0.2,0.9-0.4
					c0.8,0.4,1.4,1.2,1.5,2.2c0-0.1,0-0.2,0-0.3c0-1.6-1.1-3-2.4-3C208.3,43.1,207.2,44.4,207.2,46z"/>
			</g>
			<g>
				<path class="st2" d="M209.6,47.7c-0.7,0-1.4-0.1-1.8-0.3c-0.6-0.3-1-0.7-1-1.3c0-1.9,1.3-3.4,2.8-3.4c1.6,0,2.8,1.5,2.8,3.4
					C212.5,47.2,211,47.7,209.6,47.7z M209.6,43.5c-1.1,0-2,1.1-2,2.6c0,0.5,0.9,0.8,2,0.8c1.1,0,2-0.4,2-0.8
					C211.7,44.6,210.7,43.5,209.6,43.5z"/>
			</g>
			<g>
				<g>
					<ellipse class="st2" cx="203.3" cy="42.4" rx="3" ry="3.5"/>
				</g>
				<g>
					
						<ellipse transform="matrix(5.152363e-02 -0.9987 0.9987 5.152363e-02 152.0827 243.7078)" class="st6" cx="204.3" cy="41.8" rx="1.5" ry="1.1"/>
				</g>
				<g class="st25">
					<ellipse transform="matrix(0.973 -0.2309 0.2309 0.973 -4.594 47.7887)" class="st6" cx="201.9" cy="43.5" rx="0.9" ry="1.2"/>
				</g>
			</g>
			<g>
				<g>
					<ellipse class="st2" cx="216" cy="42.4" rx="3" ry="3.5"/>
				</g>
				<g>
					
						<ellipse transform="matrix(0.9987 -5.153205e-02 5.153205e-02 0.9987 -1.8679 11.1298)" class="st6" cx="214.9" cy="41.8" rx="1.1" ry="1.5"/>
				</g>
				<g class="st25">
					<path class="st6" d="M218.2,43.7c-0.2,0.7-0.7,1.1-1.1,1c-0.5-0.1-0.7-0.7-0.5-1.4s0.7-1.1,1.1-1
						C218.1,42.4,218.4,43.1,218.2,43.7z"/>
				</g>
			</g>
		</g>
		<g>
			<g>
				<path class="st2" d="M203.1,147c-0.1,0-0.1,0-0.2,0c-3.1-0.2-3.5-3.6-3.8-5.4c-0.2-2-0.7-4.3-2.7-7l-1.7-2.2l13.5,3.6
					c0.7,0.2,1.1,0.9,1,1.6C208.8,140.5,207.1,147,203.1,147z M199.4,135.6c1.1,2.1,1.5,4,1.7,5.8c0.4,3,1,3.7,2,3.7
					c1.9,0.1,3.5-3.5,4.3-7.4L199.4,135.6z M207.8,137.9L207.8,137.9L207.8,137.9z"/>
			</g>
		</g>
		<g>
			<g>
				<path class="st6" d="M211.7,133.3c0,0-0.6,1.9-2.1,3.1h0c-0.3,0.3-0.7,0.5-1.1,0.7c-3.9,1.5-6.1-2.4-6.1-2.4
					c-1.2,1.5-3.5,3.2-6.2,1.9c-1.2-0.6-1.6-2.4-1.7-3.5c-0.1-0.5-0.1-0.8-0.1-0.8l7.4-2.5L211.7,133.3z"/>
			</g>
			<g>
				<path class="st7" d="M209.6,136.4c-0.3,0.3-0.7,0.5-1.1,0.7c-3.9,1.5-6.1-2.4-6.1-2.4c-1.2,1.5-3.5,3.2-6.2,1.9
					c-1.2-0.6-1.6-2.4-1.7-3.5c0.7,0.8,2.2,2.3,3.7,1.8c2.9-0.8,1.6-3.6,1.6-3.6l4.4-0.6C204.2,130.8,204.2,137.6,209.6,136.4z"/>
			</g>
		</g>
		<g>
			<path class="st2" d="M202.5,130.2c0,1.4,0.2,2.9,0.8,4.2c0.6,1.3-1.4,2-1.8,0.7c-0.3-1.2-0.4-2.5-0.2-3.8
				c0.1-0.4,0.1-0.8,0.2-1.2c0.1-0.3,0.3-0.4,0.6-0.4C202.3,129.7,202.5,130,202.5,130.2L202.5,130.2z"/>
		</g>
		<g>
			<path class="st2" d="M208.2,129.8c-0.2,1.1-4.2,2.9-6.4,2.7c-2.3-0.2-4.7-2.2-4.9-3.3c-0.3-1.2,1.8-2.6,6.4-2.1
				C207,127.4,208.5,128.6,208.2,129.8z"/>
		</g>
		<g class="st16">
			<path class="st6" d="M203,128c0.1,0.3-0.8,0.7-1.4,0.7c-0.4,0-1.7,0-1.8-0.4c-0.1-0.4,0.3-0.7,1.6-0.8
				C202.5,127.5,203,127.7,203,128z"/>
		</g>
		<g>
			<g>
				<path class="st2" d="M195,132.3c0.2,0.9,0.5,1.8,0.8,2.5c0.2,0.4,0.4,0.7,0.8,0.9c1,0.5,2.1,0.5,3.1,0c0.7-0.3,1.4-0.9,1.9-1.6
					c0.3-0.4,0.9-0.5,1.4-0.2c0.1,0.1,0.2,0.2,0.3,0.3c1,1.6,2.8,2.6,4.7,1.9c1.4-0.5,2.1,1.5,0.7,2c-2.6,1-5.4-0.3-6.9-2.5
					c-0.1-0.1-0.2-0.3-0.3-0.5l1.6,0.1c-1.8,2.4-5.2,3.8-7.9,1.9c-1.4-1.3-1.6-3.1-1.4-4.9C193.9,131.7,194.9,131.7,195,132.3
					L195,132.3z"/>
			</g>
		</g>
		<g>
			<path class="st2" d="M202.9,142.7c0.2-0.5,0.5-1.2,1.1-1.4l-0.9-0.2c0,0-0.7,0.3-0.5,1.6C202.6,142.8,202.9,142.9,202.9,142.7z"
				/>
		</g>
	</g>
	<g>
		<g>
			<path class="st3" d="M156.1,72.6c-0.3,0-0.6-0.1-0.8-0.4c-0.3-0.3-0.3-0.8,0-1.1l6.3-9.7l-8.1,2.7c-0.5,0.2-1-0.1-1.2-0.6
				c-0.2-0.5,0.1-1,0.6-1.2l10.7-3.6c0.4-0.1,0.8,0,1.1,0.3c0.3,0.3,0.3,0.8,0,1.1l-6.3,9.7l8.1-2.7c0.5-0.2,1,0.1,1.2,0.6
				c0.2,0.5-0.1,1-0.6,1.2l-10.7,3.6C156.3,72.6,156.2,72.6,156.1,72.6z"/>
		</g>
		<g>
			<path class="st3" d="M163.5,52.8C163.5,52.8,163.4,52.8,163.5,52.8l-7.8-0.7c-0.3,0-0.5-0.2-0.6-0.5c-0.1-0.3,0-0.6,0.3-0.7
				l6.7-4.4l-5.8-0.5c-0.4,0-0.6-0.4-0.6-0.7c0-0.4,0.4-0.6,0.7-0.6l7.7,0.7c0.3,0,0.5,0.2,0.6,0.5c0.1,0.3,0,0.6-0.3,0.7l-6.7,4.4
				l5.8,0.5c0.4,0,0.6,0.4,0.6,0.7C164.1,52.6,163.8,52.8,163.5,52.8z"/>
		</g>
		<g>
			<path class="st3" d="M165.5,39.8c-0.2,0-0.3-0.1-0.4-0.2c-0.1-0.2-0.1-0.4,0-0.6L169,34l-4.5,1c-0.3,0.1-0.6-0.1-0.6-0.4
				c-0.1-0.3,0.1-0.6,0.4-0.6l5.9-1.4c0.2,0,0.4,0,0.6,0.2c0.1,0.2,0.1,0.4,0,0.6l-3.9,4.9l4.5-1c0.3-0.1,0.6,0.1,0.6,0.4
				c0.1,0.3-0.1,0.6-0.4,0.6l-5.9,1.4C165.6,39.8,165.5,39.8,165.5,39.8z"/>
		</g>
	</g>
</g>
</svg>
